# xmcd
#
# Track frame offsets:
#	150
#	24665
#	46916
#	81811
#	114551
#	141870
#	169259
#	193870
#
# Disc length: 3094 seconds
# Revision: 0
# Processed by: cddbd v1.5.2PL0 Copyright (c) Steve Scherf et al.
# Submitted via: dBpowerAMP V12.0
#
DISCID=6a0c1408
DTITLE=Steve Morrison and Blues Abuse - Blues Abuse Live
DYEAR=2008
DGENRE=
TTITLE0=1. A-Train(BB2)
TTITLE1=2. Going Up The Country(BB2)
TTITLE2=3. Moment In Time(BB2)
TTITLE3=4. Man In The City(BB2)
TTITLE4=5. Freedom(BB2)
TTITLE5=6. She's Gone(BB2)
TTITLE6=7. I've Had Enough(BB2)
TTITLE7=8. Boogie Woogie Boy(BB2)
EXTD=
EXTT0=
EXTT1=
EXTT2=
EXTT3=
EXTT4=
EXTT5=
EXTT6=
EXTT7=
PLAYORDER=
